<?xml version="1.0" standalone="no"?>
<!DOCTYPE svg PUBLIC "-//W3C//DTD SVG 20010904//EN"
 "http://www.w3.org/TR/2001/REC-SVG-20010904/DTD/svg10.dtd">
<svg version="1.0" xmlns="http://www.w3.org/2000/svg"
 width="640.000000pt" height="640.000000pt" viewBox="0 0 640.000000 640.000000"
 preserveAspectRatio="xMidYMid meet">
<metadata>
Created by potrace 1.11, written by Peter Selinger 2001-2013
</metadata>
<g transform="translate(0.000000,640.000000) scale(0.100000,-0.100000)"
fill="#000000" stroke="none">
<path d="M740 4386 l0 -83 63 -6 c34 -4 101 -9 150 -13 l87 -7 -2 -1176 -3
-1176 -135 -12 c-74 -6 -141 -12 -147 -12 -9 -1 -13 -25 -13 -86 l0 -85 653 0
c691 0 770 4 917 47 137 39 232 95 331 193 68 67 94 101 122 160 59 124 71
185 71 355 1 142 -1 154 -30 236 -75 209 -251 380 -443 430 -28 7 -51 15 -51
18 0 4 26 16 58 29 117 46 243 166 297 284 40 89 55 164 55 284 0 207 -54 350
-179 475 -118 118 -277 188 -496 218 -47 7 -310 11 -691 11 l-614 0 0 -84z
m1220 -116 c232 -25 383 -100 467 -233 86 -136 94 -368 18 -524 -43 -88 -112
-153 -210 -199 -123 -59 -173 -64 -591 -64 l-374 0 0 515 0 515 298 0 c163 0
340 -5 392 -10z m270 -1244 c191 -63 318 -192 365 -371 20 -78 20 -252 0 -330
-38 -145 -130 -257 -267 -324 -135 -67 -167 -71 -640 -71 l-418 0 0 561 0 560
453 -3 c403 -4 458 -6 507 -22z"/>
<path d="M4145 4458 c-2 -7 -186 -541 -409 -1186 -222 -646 -406 -1175 -408
-1177 -2 -2 -45 -10 -96 -16 l-92 -13 0 -168 0 -168 460 0 460 0 0 168 0 168
-82 13 c-46 8 -88 16 -94 20 -7 4 10 69 48 189 l59 182 436 -2 437 -3 58 -180
c31 -98 55 -181 53 -184 -3 -2 -44 -12 -93 -20 l-87 -16 0 -165 0 -165 463 -3
462 -2 -2 167 -3 168 -96 14 -95 14 -354 1031 c-194 567 -378 1102 -408 1189
l-54 157 -280 0 c-214 0 -280 -3 -283 -12z m435 -1088 c78 -250 145 -463 148
-472 4 -17 -15 -18 -303 -18 -242 0 -306 3 -302 13 4 11 282 891 294 931 3 10
8 14 12 10 4 -5 72 -214 151 -464z"/>
</g>
</svg>
